<svg width="40" height="40" viewBox="0 0 40 40" fill="none" xmlns="http://www.w3.org/2000/svg">
<g clip-path="url(#clip0_123_367)">
<path d="M40 20C40 19.757 39.9956 19.515 39.9871 19.2741C39.605 8.56469 30.8027 0 20 0C9.19727 0 0.395 8.56469 0.0129687 19.2741C0.004375 19.515 0 19.757 0 20C0 31.0457 10.2736 39.2742 20 39.2742C29.9027 39.2742 40 31.0457 40 20Z" fill="#FF5876"/>
<path d="M20 38.5484C9.19742 38.5484 0.396719 29.9835 0.0145313 19.2742C0.00585938 19.5153 0 19.7569 0 20C0 31.0457 8.9543 40 20 40C31.0457 40 40 31.0457 40 20C40 19.7569 39.9941 19.5153 39.9855 19.2742C39.6033 29.9835 30.8026 38.5484 20 38.5484Z" fill="#E6485D"/>
<path d="M36.6734 19.2741C36.2934 10.3939 28.9738 3.3111 20 3.3111C11.0262 3.3111 3.70665 10.3939 3.32665 19.2741C3.31634 19.5148 3.32657 35.6273 20 35.6273C36.6734 35.6273 36.6837 19.5148 36.6734 19.2741Z" fill="#E4EEF9"/>
<path d="M20 35.2373C11.0263 35.2373 3.70789 28.1543 3.32774 19.2742C3.31742 19.515 3.3111 19.7567 3.3111 20C3.3111 29.217 10.783 36.6889 20 36.6889C29.217 36.6889 36.6889 29.2171 36.6889 20C36.6889 19.7567 36.6825 19.515 36.6723 19.2742C36.2921 28.1544 28.9738 35.2373 20 35.2373Z" fill="#D5E0F2"/>
<path d="M26.0621 14.1445C25.5864 13.6754 24.8205 13.6806 24.3514 14.1563L21.5128 17.0341L21.7981 18.4042L23.124 18.8459L26.0739 15.8552C26.543 15.3796 26.5377 14.6137 26.0621 14.1445Z" fill="#405B6C"/>
<path d="M18.2877 17.1443L11.85 11.4074C11.3512 10.9629 10.5866 11.007 10.1421 11.5058C9.69768 12.0045 9.74167 12.7692 10.2405 13.2137L16.8049 19.0635L18.1728 18.6073L18.2877 17.1443Z" fill="#405B6C"/>
<path d="M28.5653 27.7997C28.4279 27.7997 28.29 27.7533 28.1765 27.658L20.5146 21.2222C20.2589 21.0074 20.2256 20.6258 20.4404 20.3701C20.6553 20.1143 21.0368 20.0811 21.2926 20.296L28.9546 26.7319C29.2103 26.9467 29.2436 27.3283 29.0287 27.584C28.9091 27.7264 28.7378 27.7997 28.5653 27.7997Z" fill="#86DCFF"/>
<path d="M16.8049 19.0635L17.9346 20.0702L19.3854 19.5773L19.3067 18.0523L18.2877 17.1443C17.5788 17.5703 17.0421 18.2529 16.8049 19.0635Z" fill="#2D4456"/>
<path d="M21.5127 17.0342L20.5522 18.008V19.9194H22.0652L23.124 18.846C22.833 18.0589 22.2528 17.4125 21.5127 17.0342Z" fill="#2D4456"/>
<path d="M21.9362 19.2741C21.6423 18.4905 20.8862 17.9327 20 17.9327C19.1137 17.9327 18.3577 18.4905 18.0638 19.2741C17.9791 19.4999 18.0582 21.3414 20 21.3414C21.9418 21.3414 22.0208 19.4999 21.9362 19.2741Z" fill="#FF5876"/>
<path d="M20 20.6156C19.1138 20.6156 18.3581 20.0578 18.0641 19.2742C17.9794 19.5001 17.9327 19.7445 17.9327 20C17.9327 21.1417 18.8583 22.0672 19.9999 22.0672C21.1416 22.0672 22.0671 21.1417 22.0671 20C22.0671 19.7445 22.0205 19.5001 21.9358 19.2742C21.642 20.0577 20.8863 20.6156 20 20.6156Z" fill="#E6485D"/>
<path d="M20.606 7.3104V5.43329C20.606 5.0986 20.3347 4.82727 20 4.82727C19.6653 4.82727 19.394 5.0986 19.394 5.43329V7.3104C19.394 7.64508 19.6652 7.91641 20 7.91641C20.3348 7.91641 20.606 7.64508 20.606 7.3104Z" fill="#405B6C"/>
<path d="M19.394 32.6896V34.5667C19.394 34.9014 19.6652 35.1728 20 35.1728C20.3348 35.1728 20.606 34.9014 20.606 34.5667V32.6896C20.606 32.3549 20.3347 32.0836 20 32.0836C19.6653 32.0836 19.394 32.3549 19.394 32.6896Z" fill="#405B6C"/>
<path d="M34.5667 20.606C34.9015 20.606 35.1728 20.3347 35.1728 20C35.1728 19.6653 34.9014 19.394 34.5667 19.394H32.6896C32.3549 19.394 32.0836 19.6653 32.0836 20C32.0836 20.3347 32.3549 20.606 32.6896 20.606H34.5667Z" fill="#405B6C"/>
<path d="M5.43329 19.394C5.09852 19.394 4.82727 19.6653 4.82727 20C4.82727 20.3347 5.09852 20.606 5.43329 20.606H7.3104C7.64516 20.606 7.91641 20.3347 7.91641 20C7.91641 19.6653 7.64508 19.394 7.3104 19.394H5.43329Z" fill="#405B6C"/>
</g>
<defs>
<clipPath id="clip0_123_367">
<rect width="40" height="40" fill="white"/>
</clipPath>
</defs>
</svg>
