<svg width="40" height="40" viewBox="0 0 40 40" fill="none" xmlns="http://www.w3.org/2000/svg">
<g clip-path="url(#clip0_123_504)">
<path fill-rule="evenodd" clip-rule="evenodd" d="M22.3968 6.8237L27.3379 9.66862C28.5955 10.4511 29.1305 10.3645 29.9743 9.88534V5.32026C29.9743 4.7362 29.4941 4.2594 28.9088 4.2594H22.3968L21.4822 5.45713L22.3968 6.8237Z" fill="#FFBC85"/>
<path fill-rule="evenodd" clip-rule="evenodd" d="M15.965 4.29821L8.75794 4.25946H2.46091C1.8756 4.25946 1.39771 4.73626 1.39771 5.32032V38.9392C1.39771 39.521 1.8756 40.0001 2.46091 40.0001H28.9088C29.4941 40.0001 29.9743 39.521 29.9743 38.9392V20.5418L27.3379 18.1509L15.965 4.29821Z" fill="#FED1A3"/>
<path fill-rule="evenodd" clip-rule="evenodd" d="M21.7064 7.70203H9.44851C9.06898 7.70203 8.75796 7.39172 8.75796 7.01304V6.82367H4.67203C4.31992 6.82367 4.03406 7.10883 4.03406 7.46015V36.7969C4.03406 37.1482 4.31984 37.4357 4.67203 37.4357H26.6978C27.0499 37.4357 27.338 37.1483 27.338 36.7969V18.1509L27.1826 18.0118C23.4762 14.649 24.6812 10.5128 27.338 9.66867V7.46023C27.338 7.1089 27.0499 6.82375 26.6978 6.82375H22.3969V7.01312C22.3969 7.39179 22.0859 7.70203 21.7064 7.70203Z" fill="#F9F7F8"/>
<path fill-rule="evenodd" clip-rule="evenodd" d="M22.3968 6.82367V4.25938V3.40383C22.3968 3.02508 22.0859 2.71484 21.7063 2.71484H18.5372C18.4892 1.6882 17.8901 0.798438 17.0304 0.337578C16.628 0.120938 16.1707 0 15.686 0C15.199 0 14.7417 0.120938 14.3415 0.337656C13.4795 0.798516 12.8804 1.68828 12.8325 2.71492H9.44848C9.06895 2.71492 8.75793 3.02516 8.75793 3.40391V4.25938V6.82367V7.01305C8.75793 7.3918 9.06887 7.70203 9.44848 7.70203H21.7064C22.0859 7.70203 22.3969 7.39172 22.3969 7.01305V6.82367H22.3968Z" fill="#BEB9DD"/>
<path fill-rule="evenodd" clip-rule="evenodd" d="M21.7064 2.71484H18.5373C18.4893 1.6882 17.8902 0.798438 17.0305 0.337578C16.628 0.120938 16.1708 0 15.686 0C15.5374 0 15.3933 0.0114063 15.2493 0.0319531C15.3316 0.132344 15.4116 0.235 15.4848 0.337656C17.2911 2.94758 16.9916 5.32484 16.3468 7.70203H18.7568H21.7065C22.086 7.70203 22.397 7.39172 22.397 7.01305V6.82367V4.25938V3.40383C22.3968 3.02516 22.0859 2.71484 21.7064 2.71484Z" fill="#A7A2D3"/>
<path fill-rule="evenodd" clip-rule="evenodd" d="M21.7064 7.70201H18.7568H16.3468C19.4496 16.604 20.5333 29.2705 15.4504 37.4357H26.6977C27.0498 37.4357 27.3379 37.1483 27.3379 36.7969C27.3379 26.0879 27.3379 15.9539 27.3379 7.46021C27.3379 7.10889 27.0498 6.82373 26.6977 6.82373H22.3968V7.01311C22.3968 7.39178 22.0859 7.70201 21.7064 7.70201Z" fill="#DDDAEC"/>
<path fill-rule="evenodd" clip-rule="evenodd" d="M27.338 18.1509V36.7969C27.338 37.1482 27.0499 37.4357 26.6978 37.4357H15.4505C14.8583 38.387 14.2181 39.2471 13.5344 40H28.9088C29.4941 40 29.9743 39.5209 29.9743 38.9391V20.5418L27.338 18.1509Z" fill="#FFBC85"/>
<path d="M16.1732 19.5655C16.1664 19.5655 16.1595 19.5654 16.1527 19.5651C15.9066 19.5568 15.6903 19.3995 15.6066 19.1679L14.1797 15.2216L13.0298 17.605C12.9373 17.7967 12.7506 17.9254 12.5386 17.9434C12.3264 17.9619 12.1206 17.8664 11.997 17.6933L10.819 16.043H7.61693C7.2842 16.043 7.01459 15.7733 7.01459 15.4406C7.01459 15.1079 7.28427 14.8383 7.61693 14.8383H11.129C11.3236 14.8383 11.5062 14.9323 11.6193 15.0906L12.3865 16.1655L13.7166 13.4085C13.822 13.1901 14.0486 13.0558 14.2901 13.0687C14.5322 13.0811 14.7432 13.2374 14.8257 13.4654L16.2278 17.3431L17.1719 15.198C17.268 14.9793 17.4844 14.8382 17.7232 14.8382H23.4691C23.8019 14.8382 24.0715 15.1079 24.0715 15.4405C24.0715 15.7733 23.8019 16.0429 23.4691 16.0429H18.1161L16.7243 19.2056C16.6279 19.4248 16.4112 19.5655 16.1732 19.5655Z" fill="#375E7D"/>
<path d="M23.7528 23.7063H17.3026C16.9699 23.7063 16.7002 23.4366 16.7002 23.1039C16.7002 22.7713 16.9699 22.5016 17.3026 22.5016H23.7528C24.0855 22.5016 24.3552 22.7713 24.3552 23.1039C24.3552 23.4366 24.0855 23.7063 23.7528 23.7063ZM14.0672 23.7063H7.61695C7.28421 23.7063 7.01453 23.4366 7.01453 23.1039C7.01453 22.7713 7.28421 22.5016 7.61695 22.5016H14.0672C14.3999 22.5016 14.6695 22.7713 14.6695 23.1039C14.6695 23.4366 14.3999 23.7063 14.0672 23.7063Z" fill="#375E7D"/>
<path d="M23.7528 27.5435H17.3026C16.9699 27.5435 16.7002 27.2738 16.7002 26.9411C16.7002 26.6085 16.9699 26.3388 17.3026 26.3388H23.7528C24.0855 26.3388 24.3552 26.6085 24.3552 26.9411C24.3552 27.2738 24.0855 27.5435 23.7528 27.5435ZM14.0672 27.5435H7.61695C7.28421 27.5435 7.01453 27.2738 7.01453 26.9411C7.01453 26.6085 7.28421 26.3388 7.61695 26.3388H14.0672C14.3999 26.3388 14.6695 26.6085 14.6695 26.9411C14.6695 27.2738 14.3999 27.5435 14.0672 27.5435Z" fill="#375E7D"/>
<path d="M23.7528 31.3786H17.3026C16.9699 31.3786 16.7002 31.1089 16.7002 30.7762C16.7002 30.4436 16.9699 30.1739 17.3026 30.1739H23.7528C24.0855 30.1739 24.3552 30.4436 24.3552 30.7762C24.3552 31.1089 24.0855 31.3786 23.7528 31.3786ZM14.0672 31.3786H7.61695C7.28421 31.3786 7.01453 31.1089 7.01453 30.7762C7.01453 30.4436 7.28421 30.1739 7.61695 30.1739H14.0672C14.3999 30.1739 14.6695 30.4436 14.6695 30.7762C14.6695 31.1089 14.3999 31.3786 14.0672 31.3786Z" fill="#375E7D"/>
<path fill-rule="evenodd" clip-rule="evenodd" d="M27.338 9.66861C24.6811 10.5127 23.4761 14.6489 27.1825 18.0117L27.338 18.1509L29.9743 20.5418L31.7235 22.1297L36.2668 18.0117C41.7315 13.0542 36.5183 6.41759 31.7235 11.1242C31.1404 10.5492 30.5505 10.1454 29.9743 9.88533C29.0277 9.45876 28.12 9.42228 27.338 9.66861Z" fill="#EB5468"/>
<path fill-rule="evenodd" clip-rule="evenodd" d="M35.5076 9.53857C36.9001 11.188 36.9618 14.2383 34.1037 16.8277L29.9926 20.5578L31.7235 22.1297L36.2668 18.0117C40.2453 14.4026 38.5646 9.90357 35.5076 9.53857Z" fill="#E5384F"/>
<path d="M33.2532 14.7287H32.3258V13.8071C32.3258 13.4744 32.0562 13.2048 31.7235 13.2048C31.3908 13.2048 31.1212 13.4745 31.1212 13.8071V14.7287H30.1962C29.8634 14.7287 29.5938 14.9984 29.5938 15.331C29.5938 15.6638 29.8635 15.9334 30.1962 15.9334H31.1212V16.855C31.1212 17.1877 31.3908 17.4574 31.7235 17.4574C32.0562 17.4574 32.3258 17.1877 32.3258 16.855V15.9334H33.2532C33.5859 15.9334 33.8556 15.6637 33.8556 15.331C33.8556 14.9984 33.5858 14.7287 33.2532 14.7287Z" fill="#F9F7F8"/>
</g>
<defs>
<clipPath id="clip0_123_504">
<rect width="40" height="40" fill="white"/>
</clipPath>
</defs>
</svg>
