<svg width="40" height="40" viewBox="0 0 40 40" fill="none" xmlns="http://www.w3.org/2000/svg">
<g clip-path="url(#clip0_123_431)">
<path d="M20 40C14.8459 40 9.98391 39.3125 6.30953 38.0641C1.09469 36.2924 0 34.023 0 32.4313C0 30.3548 1.85539 28.8997 3.4118 28.0447C3.97922 27.733 4.69148 27.9403 5.00313 28.5075C5.31477 29.0748 5.10758 29.7873 4.54031 30.0988C3.14438 30.8657 2.34375 31.7159 2.34375 32.4313C2.34375 33.3064 3.58359 34.6626 7.06352 35.8449C10.5014 37.013 15.0957 37.6562 20 37.6562C24.9043 37.6562 29.4986 37.013 32.9365 35.8449C36.4164 34.6627 37.6562 33.3064 37.6562 32.4313C37.6562 31.7159 36.8556 30.8657 35.4597 30.0987C34.8924 29.7872 34.6852 29.0747 34.9969 28.5074C35.3084 27.9402 36.0208 27.733 36.5882 28.0446C38.1446 28.8997 40 30.3548 40 32.4313C40 34.023 38.9053 36.2924 33.6905 38.0641C30.0161 39.3125 25.1541 40 20 40Z" fill="#C9DFF7"/>
<path d="M36.5882 28.0447C36.0208 27.733 35.3084 27.9403 34.9969 28.5075C34.6852 29.0747 34.8924 29.7872 35.4597 30.0988C36.8556 30.8657 37.6563 31.7158 37.6563 32.4313C37.6563 33.3064 36.4164 34.6626 32.9365 35.8449C29.4986 37.013 24.9043 37.6562 20 37.6562H19.9997V40H20C25.1541 40 30.0161 39.3125 33.6905 38.0641C38.9053 36.2924 40 34.023 40 32.4313C40 30.3548 38.1446 28.8997 36.5882 28.0447Z" fill="#AECEF2"/>
<path d="M20 35.1929C16.6735 35.1929 13.5314 34.8229 11.1525 34.1508C8.24212 33.3286 6.76642 32.1385 6.76642 30.6136C6.76642 29.0887 8.24212 27.8987 11.1525 27.0766C13.5314 26.4045 16.6735 26.0344 20 26.0344C23.3265 26.0344 26.4686 26.4045 28.8475 27.0766C31.7579 27.8987 33.2336 29.0888 33.2336 30.6136C33.2336 32.1385 31.7579 33.3286 28.8475 34.1508C26.4686 34.8228 23.3265 35.1929 20 35.1929ZM9.13001 30.6136C9.29087 30.8497 10.0733 31.4639 12.2152 32.0093C14.3412 32.5509 17.1059 32.8491 19.9999 32.8491C22.8939 32.8491 25.6588 32.5509 27.7848 32.0093C29.9267 31.4639 30.7091 30.8497 30.8699 30.6136C30.709 30.3775 29.9266 29.7633 27.7847 29.2178C25.6587 28.6763 22.894 28.3781 19.9999 28.3781C17.1059 28.3781 14.3412 28.6763 12.2152 29.2178C10.0734 29.7634 9.29095 30.3775 9.13001 30.6136Z" fill="#C9DFF7"/>
<path d="M28.8475 27.0766C26.4686 26.4044 23.3265 26.0344 20 26.0344H19.9997V28.3781H20C22.8941 28.3781 25.6588 28.6763 27.7848 29.2178C29.9266 29.7633 30.7091 30.3775 30.87 30.6136C30.7091 30.8498 29.9267 31.4639 27.7849 32.0094C25.6588 32.5509 22.8941 32.8491 20 32.8491H19.9997V35.1929H20C23.3265 35.1929 26.4686 34.8228 28.8475 34.1507C31.7579 33.3286 33.2336 32.1384 33.2336 30.6136C33.2336 29.0887 31.7579 27.8987 28.8475 27.0766Z" fill="#AECEF2"/>
<path d="M20 0C13.9931 0 9.10626 4.88687 9.10626 10.8937C9.10626 14.6352 13.6518 22.8575 17.465 29.0963C18.0092 29.9868 18.9569 30.5183 20 30.5183C21.0432 30.5183 21.9908 29.9867 22.535 29.0963C26.3483 22.8575 30.8938 14.6352 30.8938 10.8937C30.8938 4.88687 26.0069 0 20 0ZM20 14.5243C17.5856 14.5243 15.6213 12.5601 15.6213 10.1457C15.6213 7.73141 17.5856 5.76719 20 5.76719C22.4144 5.76719 24.3787 7.73141 24.3787 10.1457C24.3787 12.5602 22.4144 14.5243 20 14.5243Z" fill="#FE5857"/>
<path d="M20 0H19.9997V5.76719H20C22.4144 5.76719 24.3787 7.73141 24.3787 10.1457C24.3787 12.5601 22.4144 14.5243 20 14.5243H19.9997V30.5183H20C21.0432 30.5183 21.9908 29.9867 22.535 29.0963C26.3483 22.8575 30.8938 14.6352 30.8938 10.8937C30.8938 4.88687 26.0069 0 20 0Z" fill="#DB0253"/>
</g>
<defs>
<clipPath id="clip0_123_431">
<rect width="40" height="40" fill="white"/>
</clipPath>
</defs>
</svg>
