<svg width="40" height="40" viewBox="0 0 40 40" fill="none" xmlns="http://www.w3.org/2000/svg">
<g clip-path="url(#clip0_123_410)">
<path d="M25.3658 7.31711C25.3658 3.27594 28.6418 0 32.6829 0C36.724 0 40 3.27594 40 7.31711H25.3658Z" fill="#FCE25C"/>
<path d="M40 7.31714C40 11.3582 36.7241 14.6342 32.6829 14.6342C28.6417 14.6342 25.3658 11.3583 25.3658 7.31714H40Z" fill="#FBD307"/>
<path d="M32.6829 0C32.2531 0 31.8322 0.0374219 31.4227 0.108438C34.8633 0.705703 37.4796 3.7057 37.4796 7.31703H40C40 3.27594 36.7241 0 32.6829 0Z" fill="#FBD307"/>
<path d="M37.4797 7.31709C37.4797 10.9284 34.8633 13.9284 31.4228 14.5257C31.8322 14.5968 32.2532 14.6341 32.6829 14.6341C36.724 14.6341 40.0001 11.3582 40.0001 7.31702L37.4797 7.31709Z" fill="#E6B700"/>
<path d="M38.095 19.3539C35.555 16.8139 31.4369 16.8139 28.8969 19.3539L24.0988 24.1519L33.2969 33.35L38.095 28.552C40.635 26.012 40.635 21.8939 38.095 19.3539Z" fill="#FC8086"/>
<path d="M38.095 19.3538C37.7901 19.0489 37.4619 18.7815 37.1169 18.5497C38.8152 21.0782 38.5479 24.5347 36.3128 26.7697L31.5148 31.5678L33.2969 33.3499L38.0949 28.5519C40.635 26.0119 40.635 21.8938 38.095 19.3538Z" fill="#FB636F"/>
<path d="M19.3539 38.095C16.8139 35.555 16.8139 31.4369 19.3539 28.8969L24.0989 24.1519L33.297 33.35L28.5519 38.0951C26.012 40.635 21.8939 40.635 19.3539 38.095Z" fill="#EFF3F5"/>
<path d="M31.5149 31.5678L26.7699 36.3128C24.5348 38.5479 21.0783 38.8152 18.5499 37.1169C18.7816 37.4619 19.0489 37.79 19.3539 38.095C21.8939 40.635 26.0121 40.635 28.5521 38.095L33.2971 33.3499L31.5149 31.5678Z" fill="#C9E2E7"/>
<path d="M1.905 1.905C-0.635 4.445 -0.635 8.56312 1.905 11.1031L6.70305 15.9012L15.9012 6.70305L11.1031 1.905C8.56312 -0.635 4.445 -0.635 1.905 1.905Z" fill="#B9EA6A"/>
<path d="M1.90501 1.905C1.60009 2.20992 1.33275 2.53813 1.10095 2.88312C3.62947 1.18477 7.08595 1.45211 9.32103 3.68711L14.1191 8.48516L15.9012 6.70305L11.1031 1.905C8.56314 -0.635 4.44501 -0.635 1.90501 1.905Z" fill="#95D528"/>
<path d="M20.6461 20.6462C18.1061 23.1862 13.988 23.1862 11.448 20.6462L6.70294 15.9012L15.9011 6.70306L20.6461 11.4481C23.1861 13.9881 23.1861 18.1062 20.6461 20.6462Z" fill="#EFF3F5"/>
<path d="M14.1191 8.48515L18.8642 13.2301C21.0992 15.4652 21.3666 18.9217 19.6682 21.4501C20.0132 21.2184 20.3413 20.9511 20.6463 20.6461C23.1863 18.1061 23.1863 13.988 20.6463 11.448L15.9013 6.70288L14.1191 8.48515Z" fill="#C9E2E7"/>
<path d="M2.14313 27.509C5.00063 24.6515 9.63352 24.6515 12.491 27.509C15.3485 30.3665 15.3485 34.9994 12.491 37.8569L2.14313 27.509Z" fill="#97E4F9"/>
<path d="M12.491 37.8569C9.63352 40.7144 5.00063 40.7144 2.14313 37.8569C-0.714375 34.9994 -0.714375 30.3665 2.14313 27.509L12.491 37.8569Z" fill="#0ACEFA"/>
<path d="M12.491 27.509C12.1871 27.205 11.8631 26.9338 11.5233 26.6946C13.5338 29.5497 13.2625 33.5211 10.7089 36.0747L12.491 37.8568C15.3485 34.9993 15.3485 30.3665 12.491 27.509Z" fill="#0ACEFA"/>
<path d="M10.7089 36.0748C8.1553 38.6284 4.18397 38.8996 1.32874 36.8891C1.56795 37.2289 1.8392 37.553 2.14311 37.8569C5.00061 40.7144 9.6335 40.7144 12.491 37.8569L10.7089 36.0748Z" fill="#09A6EE"/>
<path d="M25.3658 7.31709C25.3658 7.52038 25.3745 7.72163 25.3908 7.92069H39.9751C39.9913 7.72163 40 7.52038 40 7.31709C40 7.11381 39.9913 6.91256 39.9751 6.7135H25.3908C25.3745 6.91256 25.3658 7.11374 25.3658 7.31709Z" fill="#E6B700"/>
<path d="M2.14312 27.509C1.99921 27.6529 1.8646 27.8023 1.73523 27.9547L12.0453 38.2647C12.1977 38.1354 12.3472 38.0008 12.4911 37.8569C12.635 37.7129 12.7696 37.5635 12.899 37.4111L2.5889 27.1011C2.43648 27.2304 2.28703 27.3651 2.14312 27.509Z" fill="#09A6EE"/>
</g>
<defs>
<clipPath id="clip0_123_410">
<rect width="40" height="40" fill="white"/>
</clipPath>
</defs>
</svg>
