<svg width="46" height="40" viewBox="0 0 46 40" fill="none" xmlns="http://www.w3.org/2000/svg">
<g clip-path="url(#clip0_123_445)">
<path fill-rule="evenodd" clip-rule="evenodd" d="M5.958 18.1873C-5.06786 35.0919 35.4272 34.3344 28.9745 19.2981C28.4481 19.1681 28.0409 18.0707 27.4836 18.0048C22.5242 17.4091 17.7801 17.8427 11.2521 17.5735C10.2409 17.5552 7.85322 17.5073 5.958 18.1873Z" fill="#E6E6E6"/>
<path fill-rule="evenodd" clip-rule="evenodd" d="M0.272705 26.2402V35.7788C0.272705 36.8121 1.23193 37.6562 2.40616 37.6562H43.5934C44.7653 37.6562 45.7272 36.8121 45.7272 35.7785V26.2402H6.87317C6.37033 26.2402 5.95799 25.8777 5.95799 25.4349V10.296C5.95799 8.92029 4.68007 7.79541 3.11674 7.79541C1.55098 7.79572 0.272705 8.92029 0.272705 10.296L0.272705 26.2402Z" fill="#B5722F"/>
<path fill-rule="evenodd" clip-rule="evenodd" d="M10.0411 17.569C10.1631 21.6617 13.4632 25.0974 17.9691 26.2402H26.4387L28.7383 22.8821L27.1441 19.2981C27.0248 20.3088 26.6409 20.9934 25.7906 21.7462C25.7698 21.7645 25.7465 21.785 25.7233 21.803C24.9947 22.4304 24.0743 22.9212 23.0946 23.2587C21.2799 23.8791 19.2577 23.9682 17.8498 23.4046L14.5521 22.0838C12.2758 21.1734 11.2933 19.4235 11.2521 17.5736C10.9511 17.569 10.5314 17.5598 10.0411 17.569Z" fill="#C2C7CC"/>
<path fill-rule="evenodd" clip-rule="evenodd" d="M22.9986 28.3917C22.6927 31.3712 26.229 34.4965 29.716 34.7223H40.2674C44.475 34.7223 45.7273 33.9514 45.7273 30.4358V26.2405H23.5975C23.3433 26.8906 23.0895 27.5156 22.9986 28.3917Z" fill="#91561A"/>
<path fill-rule="evenodd" clip-rule="evenodd" d="M21.368 10.7523L20.8624 11.7264L23.3669 12.7301C23.6363 12.8372 23.9009 12.9767 24.1576 13.1409C24.5879 12.3355 24.1007 11.0626 23.1699 10.6906L22.4389 10.3986C22.0342 10.2365 21.5521 10.394 21.368 10.7523Z" fill="#EDA93B"/>
<path fill-rule="evenodd" clip-rule="evenodd" d="M20.0693 11.4093C19.5272 18.9081 15.535 16.8524 14.5522 22.0837L17.8498 23.4045C19.2578 23.9682 21.2799 23.8791 23.0947 23.2587C24.1056 22.9117 25.052 22.4008 25.791 21.7462C26.6413 20.9933 27.0249 20.3088 27.1442 19.2981C27.1546 19.2276 27.1598 19.1544 27.1674 19.0768C27.1882 18.8098 27.1882 18.5385 27.1674 18.2648C27.1181 17.619 26.9548 16.9666 26.7058 16.3461C26.1745 15.0275 25.2437 13.8458 24.1576 13.1409C23.901 12.9767 23.6364 12.8372 23.3669 12.7301L20.8624 11.7264L20.0693 11.4093Z" fill="#FFDDA6"/>
<path fill-rule="evenodd" clip-rule="evenodd" d="M20.0692 11.4093C15.2471 9.47935 11.3065 13.5763 11.2521 17.3703C11.2493 17.4389 11.2493 17.5073 11.2521 17.5735C11.2933 19.4235 12.2762 21.1734 14.5521 22.0837C15.5349 16.8527 19.5272 18.9081 20.0692 11.4093Z" fill="#808080"/>
<path fill-rule="evenodd" clip-rule="evenodd" d="M20.0693 11.4093C16.6832 10.054 13.733 11.6693 12.2554 14.067C13.8756 12.4884 16.2944 11.6876 18.9855 12.7664L19.779 13.0838L19.8619 13.118C19.9552 12.6092 20.0252 12.0434 20.0693 11.4093Z" fill="#666666"/>
<path fill-rule="evenodd" clip-rule="evenodd" d="M20.0693 11.4093C20.0252 12.0276 19.9576 12.5818 19.8695 13.0792L22.2804 14.0442C22.5526 14.1537 22.8172 14.2929 23.0714 14.4571C24.16 15.1596 25.0884 16.3416 25.6196 17.6624C25.8714 18.2828 26.032 18.9331 26.0812 19.581C26.102 19.8523 26.102 20.126 26.0812 20.3931C26.076 20.4684 26.0684 20.5438 26.0604 20.6143C26.006 21.0638 25.8995 21.4496 25.7233 21.803C25.7469 21.7847 25.7701 21.7642 25.791 21.7459C26.6413 20.9933 27.0248 20.3088 27.1441 19.2981C27.1545 19.2273 27.1597 19.1544 27.1674 19.0768C27.1882 18.8098 27.1882 18.5385 27.1674 18.2645C27.1181 17.619 26.9548 16.9666 26.7058 16.3461C26.1745 15.0275 25.2437 13.8455 24.1576 13.1406C23.9009 12.9764 23.6363 12.8372 23.3669 12.7301L20.8624 11.7264L20.0693 11.4093Z" fill="#FCC368"/>
<path fill-rule="evenodd" clip-rule="evenodd" d="M26.4391 26.2402C26.1797 28.6884 27.8856 30.8783 30.6287 31.4417H41.0945C44.6643 31.4417 45.7272 30.8075 45.7272 27.9193V15.2512C45.7272 14.4983 45.0271 13.8821 44.1719 13.8821H33.1873C27.5357 13.8821 27.4836 15.6549 27.1674 18.2648C27.1882 18.5385 27.1882 18.8098 27.1674 19.0768C27.1597 19.1544 27.1545 19.2273 27.1441 19.2981C28.1318 23.7787 26.6669 24.0982 26.4391 26.2402Z" fill="#F78411"/>
<path fill-rule="evenodd" clip-rule="evenodd" d="M33.2157 25.3506L32.8942 26.2402L32.4587 27.4493C32.2825 27.9422 31.8986 28.1955 31.6524 28.0609C30.2059 27.2623 29.0029 28.9664 30.6803 29.8016C31.0923 30.0046 30.74 30.5453 30.6855 30.7483C30.6568 30.8621 30.6387 30.9717 30.6283 31.0812C30.6155 31.2045 30.6155 31.3254 30.6283 31.4417C30.8125 33.2965 33.8431 34.0378 35.2663 31.4417C35.378 31.2387 35.4789 31.015 35.5697 30.7709L37.2288 26.2402C37.6283 25.152 37.535 24.3491 37.1539 23.2745L36.2748 20.7947H32.9331L32.9227 22.8409L33.3142 24.0912C33.4179 24.689 33.4207 24.7803 33.2157 25.3506Z" fill="#FFDDA6"/>
<path fill-rule="evenodd" clip-rule="evenodd" d="M35.4841 23.2745C35.8628 24.3491 35.9589 25.152 35.5594 26.2402L34.3619 29.5117L33.8979 30.7712C33.8095 31.0153 33.7086 31.2387 33.5969 31.4417C33.1433 32.2678 32.5291 32.7557 31.8938 32.977C32.9463 33.3627 34.4007 33.0157 35.2667 31.4417C35.378 31.2387 35.4793 31.015 35.5701 30.7712L36.0029 29.5892L37.2292 26.2405C37.2292 26.2381 37.2292 26.236 37.2319 26.2335C37.2319 26.2335 37.2319 26.2314 37.2319 26.2289C37.2656 26.1401 37.294 26.0532 37.32 25.9689C37.6103 25.0153 37.5014 24.2603 37.1539 23.2791C37.1539 23.277 37.1539 23.277 37.1539 23.2745L36.2752 20.795L36.2439 20.8292C36.2439 20.8313 36.2439 20.8313 36.2415 20.8313C36.2387 20.8359 36.2363 20.8383 36.2335 20.8426C36.0574 21.0388 35.8396 21.2125 35.609 21.3721C35.3964 21.5158 35.1734 21.6504 34.9528 21.7825L35.4841 23.2745Z" fill="#FCC368"/>
<path fill-rule="evenodd" clip-rule="evenodd" d="M27.1674 18.2648L29.848 21.55C30.5298 22.3871 31.7457 23.06 32.9227 22.8412C33.0888 22.8113 33.2546 22.7634 33.4179 22.695C33.8226 22.5241 34.297 22.1863 34.6729 21.9538C35.2146 21.6159 35.8368 21.2921 36.2439 20.8289L36.2748 20.7947C37.0811 19.8526 37.1487 18.5156 36.3344 17.5028L34.2578 14.9112C33.9211 14.5029 33.5604 14.1629 33.1873 13.8822C30.1723 11.6376 26.2549 13.4055 26.7061 16.3462C26.9548 16.9666 27.1181 17.619 27.1674 18.2648Z" fill="#64B0D9"/>
<path fill-rule="evenodd" clip-rule="evenodd" d="M32.6556 16.0678L34.7322 18.6594C35.0977 19.1156 35.2847 19.6359 35.3079 20.1581C35.3183 20.3705 35.2975 20.5847 35.2535 20.7947C35.1629 21.21 34.9656 21.6067 34.6729 21.9537C34.6754 21.9513 34.6778 21.9491 34.6833 21.9467C34.984 21.7596 35.3079 21.5771 35.6086 21.3718C35.8447 21.2097 36.0625 21.0342 36.2411 20.831C36.2439 20.831 36.2439 20.831 36.2439 20.8288L36.2748 20.7947C36.4433 20.5984 36.5782 20.3818 36.6819 20.1581C37.0706 19.3048 36.9774 18.3032 36.3344 17.5027L34.2578 14.9109C33.9211 14.5026 33.5604 14.1626 33.1873 13.8821C30.9914 12.2464 28.3135 12.7414 27.1985 14.27C28.4792 13.8092 30.1359 13.9621 31.5851 15.0409C31.9582 15.3195 32.3189 15.6595 32.6556 16.0678Z" fill="#4A83C9"/>
<path d="M31.375 9.15009H28.0825C27.8027 9.15009 27.5502 9.00177 27.4434 8.7738C27.3366 8.54584 27.3966 8.284 27.5949 8.11005L29.5387 6.40808H27.9761C27.5942 6.40808 27.2849 6.13556 27.2849 5.79926C27.2849 5.46326 27.5942 5.19073 27.9761 5.19073H31.2144C31.4943 5.19073 31.7467 5.33936 31.8532 5.56732C31.96 5.79498 31.9003 6.05713 31.7016 6.23108L29.7579 7.93304H31.375C31.7568 7.93304 32.0661 8.20557 32.0661 8.54157C32.0661 8.87787 31.7568 9.15009 31.375 9.15009Z" fill="#666666"/>
<path d="M38.1648 6.30066H34.8723C34.5925 6.30066 34.34 6.15204 34.2332 5.92407C34.1264 5.69611 34.1864 5.43427 34.3851 5.26062L36.3275 3.56079H34.7659C34.384 3.56079 34.0747 3.28857 34.0747 2.95227C34.0747 2.61627 34.384 2.34375 34.7659 2.34375H38.0042C38.2841 2.34375 38.5365 2.49237 38.643 2.72034C38.7498 2.9483 38.6898 3.21045 38.4914 3.38409L36.5487 5.08362H38.1648C38.5466 5.08362 38.8563 5.35614 38.8563 5.69214C38.8563 6.02814 38.5466 6.30066 38.1648 6.30066Z" fill="#666666"/>
</g>
<defs>
<clipPath id="clip0_123_445">
<rect width="45.4545" height="40" fill="white" transform="translate(0.272705)"/>
</clipPath>
</defs>
</svg>
