<svg width="40" height="40" viewBox="0 0 40 40" fill="none" xmlns="http://www.w3.org/2000/svg">
<g clip-path="url(#clip0_123_483)">
<path d="M9.45959 13.3932C8.56428 13.3932 7.79599 12.716 7.70185 11.8059C7.60131 10.8339 8.30771 9.96447 9.27967 9.86392L15.0744 9.26447L20.0619 4.14572C20.7439 3.44596 21.864 3.43135 22.5639 4.11322C23.2637 4.7951 23.2783 5.91525 22.5964 6.6151L17.1614 12.1931C16.8723 12.4897 16.4883 12.6756 16.0762 12.7182L9.64381 13.3837C9.58193 13.3901 9.52045 13.3932 9.45959 13.3932Z" fill="#FFB69E"/>
<path d="M14.1601 9.35907L9.27967 9.86391C8.30771 9.96446 7.60131 10.8339 7.70185 11.8059C7.79599 12.7159 8.56427 13.3932 9.45959 13.3932C9.52045 13.3932 9.58193 13.3901 9.64381 13.3837L14.703 12.8603L14.1601 9.35907Z" fill="#4699F2"/>
<path d="M31.5616 23.7888L25.2303 17.7515L16.6307 22.2287C15.5907 22.7702 14.3085 22.366 13.7671 21.3259C13.2256 20.2859 13.6298 19.0038 14.6699 18.4623L24.6181 13.283C25.4244 12.8633 26.4085 13.0033 27.0656 13.6315L34.4959 20.7194C35.3434 21.5296 35.3737 22.8736 34.5634 23.7212C33.7522 24.5697 32.4082 24.5981 31.5616 23.7888Z" fill="#414B82"/>
<path d="M32.1461 33.5406L23.583 26.757L14.6779 25.839L15.5259 21.6783L24.9346 22.6989C25.2656 22.7664 25.5757 22.9118 25.8392 23.1232L34.8033 30.2284C35.7179 30.9622 35.8646 32.2984 35.1308 33.2131C34.4006 34.1233 33.0649 34.2776 32.1461 33.5406Z" fill="#5F6E9B"/>
<path d="M17.976 16.0335L11.6105 10.6766C10.2713 9.54961 8.28194 9.67875 7.09976 10.9694L5.03515 13.2233C3.78304 14.5902 3.91851 16.7241 5.33351 17.9217L14.688 25.8389L18.4335 21.403C19.7917 19.7945 19.5868 17.3891 17.976 16.0335Z" fill="#64AFFF"/>
<path d="M7.00813 29.9346L3.19172 23.4961C2.92946 23.0824 2.85047 22.5785 2.97344 22.1044L4.98227 14.7776C5.22766 13.8318 6.19336 13.2639 7.13915 13.5094C8.08501 13.7548 8.65282 14.7204 8.40743 15.6662L6.59141 22.2499L9.99665 28.04C10.5198 28.8652 10.2749 29.9584 9.44962 30.4816C8.62594 31.0038 7.53235 30.7615 7.00813 29.9346Z" fill="#FFB69E"/>
<path d="M7.11133 20.3651L8.40742 15.6662C8.65281 14.7204 8.085 13.7548 7.13914 13.5094C6.19336 13.2639 5.22765 13.8318 4.98226 14.7776L3.71429 19.4024L7.11133 20.3651Z" fill="#4699F2"/>
<path d="M3.60582 11.9013C5.48465 11.7921 6.91923 10.1805 6.81004 8.30168C6.70085 6.42285 5.08924 4.98827 3.2104 5.09746C1.33157 5.20665 -0.103012 6.81826 0.00617921 8.6971C0.11537 10.5759 1.72698 12.0105 3.60582 11.9013Z" fill="#FFB69E"/>
<path d="M38.8095 36.3888H3.79901C3.14151 36.3888 2.60846 35.8558 2.60846 35.1983C2.60846 34.5408 3.14151 34.0078 3.79901 34.0078H38.8095C39.467 34.0078 40 34.5408 40 35.1983C40 35.8558 39.467 36.3888 38.8095 36.3888Z" fill="#87AFB9"/>
</g>
<defs>
<clipPath id="clip0_123_483">
<rect width="40" height="40" fill="white"/>
</clipPath>
</defs>
</svg>
