<svg width="47" height="40" viewBox="0 0 47 40" fill="none" xmlns="http://www.w3.org/2000/svg">
<g clip-path="url(#clip0_123_389)">
<path d="M35.0156 15.7855L31.4894 15.7856C30.9569 15.7856 30.436 15.6518 29.9907 15.4007L27.8274 14.181L27.4624 15.7856L27.8274 18.0334L28.8867 18.7077C29.5678 19.1412 30.3927 19.3752 31.24 19.3752L35.0156 19.375C35.5912 19.375 36.1134 19.1738 36.4915 18.8495C36.8687 18.5251 37.1026 18.076 37.1026 17.5802C37.1026 16.5887 36.1676 15.7855 35.0156 15.7855Z" fill="#FFDFCF"/>
<path d="M37.1028 17.5803C37.1028 18.0761 36.8689 18.5252 36.4917 18.8496C36.1137 19.1739 35.5915 19.3751 35.0159 19.3751H32.2083C32.7839 19.3751 33.3061 19.1739 33.6841 18.8496C34.0613 18.5252 34.2952 18.0761 34.2952 17.5803C34.2952 16.5888 33.3603 15.7856 32.2083 15.7856H35.0159C36.168 15.7856 37.1028 16.5888 37.1028 17.5803Z" fill="#FFCEBF"/>
<path d="M22.4006 23.8647L24.1806 28.5333L23.5723 29.6665L23.4198 29.9514C23.1287 30.4938 22.7169 30.9816 22.2069 31.3873L17.7092 35.5922L14.8145 35.25L13.3677 33.638L16.3512 29.38C16.7565 28.8874 16.9736 28.2983 16.9736 27.6947V21.7333L22.4006 23.8647Z" fill="#60B7FF"/>
<path d="M16.9736 21.7333V26.2677L20.7147 28.1944C21.0892 28.3872 21.2344 28.7917 21.0516 29.1325L20.6122 29.9515C20.3211 30.4939 19.9093 30.9816 19.3993 31.3873L15.9161 34.785L16.1094 35.4031L17.7092 35.5923L22.2069 31.3873C22.717 30.9817 23.1287 30.494 23.4198 29.9515L24.1806 28.5334L22.4006 23.8648L16.9736 21.7333Z" fill="#26A6FE"/>
<path d="M15.916 34.7848L17.7091 38.5241C17.7091 38.7985 17.608 39.0657 17.4199 39.287L17.2655 39.4689C16.8023 40.0154 15.9272 40.1619 15.2591 39.8061L12.0407 38.095C11.161 37.6266 10.9223 36.6173 11.5185 35.8906L13.3677 33.6378L15.916 34.7848Z" fill="#918291"/>
<path d="M17.7092 35.5921V38.5248C17.7092 38.7988 17.6079 39.0658 17.42 39.2871L17.2656 39.469C16.8024 40.0155 15.9273 40.1619 15.2592 39.8062L14.5095 39.4078L14.6124 39.2871C14.8006 39.0658 14.9016 38.7986 14.9016 38.5241V36.7801C14.9016 36.0227 15.269 35.2995 15.9151 34.7849H15.916L17.7092 35.5921Z" fill="#7A6D79"/>
<path d="M24.9191 9.3316H16.9738V21.7335L22.4006 22.5719L27.8274 21.7335V11.8327C27.8274 10.4514 26.5253 9.3316 24.9191 9.3316Z" fill="#FEA95C"/>
<path d="M27.8276 11.833V21.7332L25.8717 22.0356L25.0201 21.7332V11.833C25.0201 10.4511 23.7174 9.3316 22.1115 9.3316H24.919C26.5249 9.3316 27.8276 10.4511 27.8276 11.833Z" fill="#FE9738"/>
<path d="M34.4675 34.4758L32.6445 36.5151L29.4063 36.0147L27.8191 31.2287C27.5674 30.5695 27.048 30.0102 26.3555 29.6536L24.1806 28.5333L19.6333 26.1912C17.9638 25.1602 16.9736 23.5006 16.9736 21.7332H25.02L31.8218 27.916C31.9687 28.1445 32.0978 28.3827 32.2064 28.6274L34.4675 34.4758Z" fill="#60B7FF"/>
<path d="M34.4675 34.4758L33.7755 35.2499L32.447 35.0899L29.399 28.6275C29.2904 28.3828 29.1612 28.1446 29.0143 27.916L25.0201 21.7333H27.8277L31.8219 27.916C31.9688 28.1446 32.098 28.3828 32.2066 28.6275L34.4675 34.4758Z" fill="#26A6FE"/>
<path d="M16.1585 20.6338C16.1585 21.4202 15.5979 22.1654 14.6789 22.4544C13.6112 22.7892 12.4208 22.3876 11.9032 21.5176L10.3067 18.8343C9.30903 17.1563 9.64034 15.1216 11.134 13.7429L13.5167 11.5457L15.3592 12.4588L16.0276 14.2549L14.6547 15.8758C14.344 16.2428 14.2888 16.7249 14.5096 17.137L15.9508 19.8251C16.092 20.0882 16.1585 20.3635 16.1585 20.6338Z" fill="#FFDFCF"/>
<path d="M16.9735 9.3316L18.2224 11.8432L16.9735 14.3547V14.2165C16.9735 13.9075 16.5429 13.7491 16.283 13.9625C16.2654 13.977 16.2494 13.9928 16.2351 14.0097L16.0273 14.2547L13.5164 11.5457L15.1963 9.99637C15.6559 9.57223 16.2998 9.3316 16.9735 9.3316Z" fill="#FEA95C"/>
<path d="M36.4908 38.5427L32.8785 39.8111C31.9145 40.1491 30.8187 39.7137 30.4939 38.863L29.4064 36.0147L32.447 35.09L36.7894 36.2875C37.0243 36.43 37.2068 36.6272 37.3154 36.8557C37.6288 37.5173 37.2601 38.2731 36.4908 38.5427Z" fill="#918291"/>
<path d="M36.4908 38.5427L32.8784 39.811C32.199 40.0493 31.455 39.9036 30.9608 39.4988L33.6832 38.5427C34.4525 38.2731 34.8212 37.5173 34.5077 36.8557C34.3991 36.6271 34.2166 36.43 33.9817 36.2875L32.4469 35.09L34.4674 34.4759L36.7893 36.2876C37.0242 36.43 37.2067 36.6272 37.3153 36.8558C37.6288 37.5173 37.2601 38.2731 36.4908 38.5427Z" fill="#7A6D79"/>
<path d="M20.867 7.05C19.4967 6.55156 18.5826 5.40266 18.5826 4.04266V2.53328C18.5826 1.13422 19.9013 0 21.5283 0H21.9178C23.5446 0 25.2429 1.13422 25.2429 2.53328V4.04266C25.2428 5.85602 20.867 7.05 20.867 7.05Z" fill="#FFDFCF"/>
<path d="M26.2187 2.53322V3.97666C26.2187 5.79494 24.5328 7.3176 22.4185 7.32603C21.866 7.32822 21.3414 7.22955 20.867 7.05002C22.2123 6.54275 23.5474 5.49541 23.5474 4.15119V3.27853L23.5383 1.81189C23.5383 0.811423 22.6917 -6.10352e-05 21.5283 -6.10352e-05H23.2732C24.8999 1.70898e-05 26.2187 1.13416 26.2187 2.53322Z" fill="#FFCEBF"/>
</g>
<defs>
<clipPath id="clip0_123_389">
<rect width="46.5116" height="40" fill="white" transform="translate(0.325562)"/>
</clipPath>
</defs>
</svg>
