<svg width="40" height="40" viewBox="0 0 40 40" fill="none" xmlns="http://www.w3.org/2000/svg">
<g clip-path="url(#clip0_123_465)">
<path d="M32.8326 22.0849C32.8326 14.8834 26.9697 9.04858 19.7963 9.04858C16.3677 9.04858 13.1385 10.4571 11.1058 12.3769C8.33384 14.8609 6.76001 18.3733 6.76001 22.0849C6.76001 25.7335 8.28642 29.2665 11.1058 31.793C13.5453 33.9615 16.5718 35.1213 19.7963 35.1213C26.9084 35.1213 32.8326 29.3491 32.8326 22.0849Z" fill="#E4EAF8"/>
<path d="M19.7962 13.5182C15.0726 13.5182 11.2296 17.3612 11.2296 22.0849C11.2296 26.8086 15.0726 30.6517 19.7962 30.6517C24.52 30.6517 28.3629 26.8086 28.3629 22.0849C28.3629 17.3612 24.52 13.5182 19.7962 13.5182Z" fill="#D8DCE5"/>
<path d="M12.7155 31.793C6.92487 26.6039 6.91737 17.5727 12.7155 12.3769C14.59 10.6066 17.4822 9.27194 20.6096 9.07476C20.3404 9.05812 20.0694 9.04858 19.7962 9.04858C16.3676 9.04858 13.1385 10.4571 11.1057 12.3769C5.3151 17.566 5.3076 26.5971 11.1057 31.793C13.5453 33.9614 16.5718 35.1213 19.7962 35.1213C20.0643 35.1213 20.3304 35.1121 20.5948 35.0959C17.6754 34.9179 14.9493 33.7786 12.7155 31.793Z" fill="#D8DCE5"/>
<path d="M12.8393 22.0849C12.8393 17.6327 16.2535 13.9634 20.6011 13.5563C20.336 13.5314 20.0677 13.5181 19.7963 13.5181C15.0726 13.5181 11.2296 17.3612 11.2296 22.0849C11.2296 26.8086 15.0727 30.6517 19.7963 30.6517C20.0678 30.6517 20.3361 30.6384 20.6011 30.6136C16.2535 30.2065 12.8393 26.5372 12.8393 22.0849Z" fill="#C3C8D1"/>
<path d="M8.93726 5.88499C6.91937 5.34429 4.5789 7.53609 3.70952 10.7805C3.33467 12.1796 3.38405 13.2127 3.72319 13.9786C4.39679 15.4999 4.47022 17.2202 4.0396 18.8274L0.0474026 33.7265C-0.15002 34.4633 0.287247 35.2205 1.02397 35.4179C1.76069 35.6154 2.51795 35.1782 2.71538 34.4415L6.70757 19.5423C7.1382 17.9353 8.06195 16.482 9.40594 15.5014C11.8485 13.7191 12.2666 6.7771 8.93726 5.88499Z" fill="#FFC850"/>
<path d="M1.65717 33.7265L5.64937 18.8273C6.07999 17.2203 6.00656 15.4999 5.33288 13.9785C4.99374 13.2126 4.94437 12.1796 5.31921 10.7805C5.98507 8.29556 7.51398 6.42985 9.09984 5.93462C9.04656 5.91649 8.9925 5.89977 8.93719 5.88493C6.91929 5.34423 4.57882 7.53603 3.70944 10.7805C3.3346 12.1796 3.38397 13.2126 3.72311 13.9785C4.39679 15.4998 4.47015 17.2202 4.0396 18.8273L0.0474026 33.7265C-0.15002 34.4633 0.287247 35.2205 1.02397 35.418C1.44006 35.5294 1.86256 35.4383 2.18717 35.2054C1.7335 34.8799 1.50412 34.2976 1.65717 33.7265Z" fill="#F9B428"/>
<path d="M29.8079 14.6422L27.7031 6.78712C27.6169 6.46509 27.808 6.13399 28.13 6.04782C28.4519 5.96118 28.7831 6.15259 28.8693 6.47462L30.9741 14.3297C31.0603 14.6517 30.8692 14.9828 30.5472 15.069C30.2266 15.1553 29.8945 14.9653 29.8079 14.6422Z" fill="#F9B428"/>
<path d="M35.3603 13.1499L33.2556 5.29478C33.1693 4.97274 33.3604 4.64165 33.6824 4.55548C34.0044 4.46876 34.3355 4.66024 34.4217 4.98227L36.5265 12.8374C36.6128 13.1594 36.4217 13.4905 36.0996 13.5767C35.7791 13.6629 35.4469 13.4729 35.3603 13.1499Z" fill="#FFC850"/>
<path d="M33.5038 13.6473L31.399 5.79227C31.3128 5.47024 31.5038 5.13915 31.8259 5.05297C32.1478 4.96626 32.4789 5.15774 32.5652 5.47977L34.6699 13.3349C34.7562 13.6569 34.5651 13.988 34.2431 14.0742C33.9225 14.1603 33.5903 13.9703 33.5038 13.6473Z" fill="#FFC850"/>
<path d="M31.6473 14.1447L29.5425 6.28962C29.4562 5.96759 29.6473 5.6365 29.9694 5.55032C30.2912 5.46368 30.6224 5.65509 30.7087 5.97712L32.8134 13.8322C32.8997 14.1542 32.7086 14.4853 32.3866 14.5715C32.0659 14.6578 31.7338 14.4678 31.6473 14.1447Z" fill="#FFC850"/>
<path d="M36.3774 12.2805L29.6575 14.0811L30.2493 16.2899C30.409 16.8854 30.8353 17.3919 31.453 17.6148C32.36 17.9422 33.0601 18.6759 33.3097 19.6073L37.2746 34.4045C37.4671 35.1228 38.1847 35.593 38.9112 35.4345C39.6869 35.2653 40.1558 34.4855 39.9526 33.7274L36.0155 19.034C35.7597 18.0794 35.9339 17.0333 36.623 16.1983C37.0087 15.7309 37.133 15.1002 36.9761 14.5149L36.3774 12.2805Z" fill="#FFC850"/>
<path d="M38.956 34.4046L34.9911 19.6073C34.7415 18.676 34.0413 17.9422 33.1344 17.6149C32.5167 17.3919 32.0904 16.8855 31.9308 16.29L31.2118 13.6647L29.6575 14.0812L30.2493 16.29C30.4089 16.8855 30.8352 17.3919 31.4529 17.6149C32.3599 17.9422 33.0601 18.676 33.3096 19.6073L37.2745 34.4046C37.467 35.1229 38.1846 35.5931 38.9112 35.4345C39.1219 35.3886 39.3088 35.2964 39.4669 35.1731C39.225 34.9856 39.0402 34.7189 38.956 34.4046Z" fill="#F9B428"/>
</g>
<defs>
<clipPath id="clip0_123_465">
<rect width="40" height="40" fill="white"/>
</clipPath>
</defs>
</svg>
